<?xml version="1.0" standalone="no"?>
<!DOCTYPE svg PUBLIC "-//W3C//DTD SVG 20010904//EN"
 "http://www.w3.org/TR/2001/REC-SVG-20010904/DTD/svg10.dtd">
<svg version="1.0" xmlns="http://www.w3.org/2000/svg"
 width="1024.000000pt" height="1024.000000pt" viewBox="0 0 1024.000000 1024.000000"
 preserveAspectRatio="xMidYMid meet">

<g transform="translate(0.000000,1024.000000) scale(0.100000,-0.100000)"
fill="#000000" stroke="none">
<path d="M0 5120 l0 -5120 5120 0 5120 0 0 5120 0 5120 -5120 0 -5120 0 0
-5120z m7017 870 c219 -52 368 -171 459 -366 37 -79 60 -193 50 -246 -3 -19
-18 -46 -32 -59 -24 -23 -34 -24 -166 -27 -196 -5 -208 2 -228 128 -18 119
-104 200 -221 208 -74 6 -131 -15 -183 -65 -100 -97 -101 -224 -1 -311 48 -42
58 -47 246 -93 172 -43 275 -81 346 -130 249 -171 304 -494 129 -758 -89 -134
-240 -239 -396 -276 -91 -21 -249 -19 -336 3 -249 66 -443 263 -492 501 -13
65 -14 85 -4 120 19 63 44 71 217 71 132 0 147 -2 165 -20 11 -11 20 -33 20
-50 0 -47 40 -139 79 -183 76 -85 196 -110 296 -63 145 67 179 235 68 337 -45
42 -99 64 -240 97 -73 18 -166 44 -206 60 -236 92 -377 289 -377 527 0 203 87
368 252 482 176 122 362 160 555 113z m-3613 -39 c26 -24 26 -27 26 -168 0
-139 -1 -145 -25 -168 l-24 -25 -491 0 c-528 0 -532 0 -588 53 -83 77 -83 228
-1 289 63 47 75 48 591 45 l486 -2 26 -24z m1417 5 c90 -19 204 -65 272 -110
31 -21 88 -72 127 -113 317 -339 227 -878 -182 -1084 -90 -45 -176 -62 -300
-57 l-107 4 19 -26 c27 -37 110 -114 156 -142 54 -33 109 -54 222 -83 53 -14
125 -39 159 -55 68 -34 152 -112 206 -193 l35 -52 -51 -9 c-73 -12 -334 8
-432 34 -273 70 -498 265 -631 544 -44 92 -94 257 -94 309 l0 27 265 0 c246 0
268 2 322 21 151 57 231 236 176 394 -26 71 -120 165 -198 196 -60 24 -62 24
-550 29 -365 4 -496 8 -512 17 -12 7 -32 28 -45 45 -21 30 -23 46 -26 164 -4
128 -3 132 19 148 20 14 78 15 553 10 392 -4 548 -8 597 -18z m1126 -2 c49
-32 48 -6 51 -909 2 -467 1 -874 -3 -903 -4 -34 -15 -62 -32 -82 l-25 -30
-111 0 c-133 0 -169 15 -187 77 -8 27 -10 299 -8 920 l3 883 28 27 c21 21 41
29 85 34 77 9 172 1 199 -17z m-2632 -759 c24 -23 25 -28 25 -175 0 -168 -6
-183 -72 -195 -18 -3 -224 -5 -458 -3 -409 3 -427 4 -465 24 -22 11 -53 40
-70 63 -27 39 -30 50 -30 120 0 70 3 81 28 114 15 21 45 46 65 57 35 18 61 19
495 20 l458 0 24 -25z m666 -14 l39 -39 0 -527 0 -527 -29 -29 c-29 -29 -30
-29 -151 -29 -67 0 -130 5 -141 10 -49 27 -49 32 -49 609 0 477 2 541 16 555
12 13 41 16 146 16 l130 0 39 -39z m-571 -763 c18 -20 20 -35 20 -182 0 -150
-1 -161 -22 -183 l-21 -23 -496 0 c-485 0 -496 0 -539 21 -84 41 -135 152
-112 240 15 56 51 104 98 129 35 18 61 19 544 20 l507 0 21 -22z"/>
</g>
</svg>
